<svg xmlns="http://www.w3.org/2000/svg">
  <symbol id="package" viewBox="0 0 24 24">
    <path d="M12 2 3 6.5v11L12 22l9-4.5v-11L12 2Zm0 2.3 6.5 3.2L12 10.7 5.5 7.5 12 4.3Zm-7 5.1 6 3v7.3l-6-3V9.4Zm14 7.3-6 3v-7.3l6-3v7.3Z" fill="currentColor"/>
  </symbol>
  <symbol id="theme" viewBox="0 0 24 24">
    <path d="M12 3a9 9 0 1 0 9 9 7 7 0 0 1-9-9Z" fill="currentColor"/>
  </symbol>
  <symbol id="review" viewBox="0 0 24 24">
    <path d="M4 5h16v11H7l-3 3V5Zm3 3v2h10V8H7Zm0 4v2h7v-2H7Z" fill="currentColor"/>
  </symbol>
</svg>
